{
 "accessors": [
  {
   "componentType": 5126,
   "type": "VEC3",
   "count": 288,
   "max": [
    828.9739990234375,
    604.318603515625,
    -990.4550170898438
   ],
   "min": [
    622.7669677734375,
    -9.175385475158691,
    -1603.948974609375
   ],
   "bufferView": 1
  },
  {
   "componentType": 5126,
   "type": "VEC3",
   "count": 288,
   "bufferView": 2
  },
  {
   "componentType": 5126,
   "type": "VEC2",
   "count": 288,
   "bufferView": 3
  },
  {
   "componentType": 5123,
   "type": "SCALAR",
   "count": 384,
   "bufferView": 4
  },
  {
   "componentType": 5126,
   "type": "VEC3",
   "count": 288,
   "max": [
    828.9739990234375,
    604.318603515625,
    1633.2060546875
   ],
   "min": [
    622.7669677734375,
    -9.175385475158691,
    1019.7119750976562
   ],
   "bufferView": 5
  },
  {
   "componentType": 5126,
   "type": "VEC3",
   "count": 288,
   "bufferView": 6
  },
  {
   "componentType": 5126,
   "type": "VEC2",
   "count": 288,
   "bufferView": 7
  },
  {
   "componentType": 5123,
   "type": "SCALAR",
   "count": 384,
   "bufferView": 8
  },
  {
   "componentType": 5126,
   "type": "VEC3",
   "count": 288,
   "max": [
    -622.7669677734375,
    604.318603515625,
    1633.2060546875
   ],
   "min": [
    -828.9739990234375,
    -9.175385475158691,
    1019.7119750976562
   ],
   "bufferView": 9
  },
  {
   "componentType": 5126,
   "type": "VEC3",
   "count": 288,
   "bufferView": 10
  },
  {
   "componentType": 5126,
   "type": "VEC2",
   "count": 288,
   "bufferView": 11
  },
  {
   "componentType": 5123,
   "type": "SCALAR",
   "count": 384,
   "bufferView": 12
  },
  {
   "componentType": 5126,
   "type": "VEC3",
   "count": 288,
   "max": [
    -622.7669677734375,
    604.318603515625,
    -990.4550170898438
   ],
   "min": [
    -828.9739990234375,
    -9.175385475158691,
    -1603.948974609375
   ],
   "bufferView": 13
  },
  {
   "componentType": 5126,
   "type": "VEC3",
   "count": 288,
   "bufferView": 14
  },
  {
   "componentType": 5126,
   "type": "VEC2",
   "count": 288,
   "bufferView": 15
  },
  {
   "componentType": 5123,
   "type": "SCALAR",
   "count": 384,
   "bufferView": 16
  },
  {
   "componentType": 5126,
   "type": "VEC3",
   "count": 2106,
   "max": [
    977.208984375,
    1461.233642578125,
    2231.633056640625
   ],
   "min": [
    -977.208984375,
    112.30450439453125,
    -2231.633056640625
   ],
   "bufferView": 17
  },
  {
   "componentType": 5126,
   "type": "VEC3",
   "count": 2106,
   "bufferView": 18
  },
  {
   "componentType": 5126,
   "type": "VEC2",
   "count": 2106,
   "bufferView": 19
  },
  {
   "componentType": 5123,
   "type": "SCALAR",
   "count": 2910,
   "bufferView": 20
  }
 ],
 "asset": {
  "version": "2.0",
  "generator": "clara.io"
 },
 "bufferViews": [
  {
   "buffer": 0,
   "byteOffset": 0,
   "byteLength": 154115
  },
  {
   "buffer": 0,
   "byteOffset": 154116,
   "byteLength": 3456,
   "target": 34962,
   "byteStride": 12
  },
  {
   "buffer": 0,
   "byteOffset": 157572,
   "byteLength": 3456,
   "target": 34962,
   "byteStride": 12
  },
  {
   "buffer": 0,
   "byteOffset": 161028,
   "byteLength": 2304,
   "target": 34962,
   "byteStride": 8
  },
  {
   "buffer": 0,
   "byteOffset": 163332,
   "byteLength": 768,
   "target": 34963
  },
  {
   "buffer": 0,
   "byteOffset": 164100,
   "byteLength": 3456,
   "target": 34962,
   "byteStride": 12
  },
  {
   "buffer": 0,
   "byteOffset": 167556,
   "byteLength": 3456,
   "target": 34962,
   "byteStride": 12
  },
  {
   "buffer": 0,
   "byteOffset": 171012,
   "byteLength": 2304,
   "target": 34962,
   "byteStride": 8
  },
  {
   "buffer": 0,
   "byteOffset": 173316,
   "byteLength": 768,
   "target": 34963
  },
  {
   "buffer": 0,
   "byteOffset": 174084,
   "byteLength": 3456,
   "target": 34962,
   "byteStride": 12
  },
  {
   "buffer": 0,
   "byteOffset": 177540,
   "byteLength": 3456,
   "target": 34962,
   "byteStride": 12
  },
  {
   "buffer": 0,
   "byteOffset": 180996,
   "byteLength": 2304,
   "target": 34962,
   "byteStride": 8
  },
  {
   "buffer": 0,
   "byteOffset": 183300,
   "byteLength": 768,
   "target": 34963
  },
  {
   "buffer": 0,
   "byteOffset": 184068,
   "byteLength": 3456,
   "target": 34962,
   "byteStride": 12
  },
  {
   "buffer": 0,
   "byteOffset": 187524,
   "byteLength": 3456,
   "target": 34962,
   "byteStride": 12
  },
  {
   "buffer": 0,
   "byteOffset": 190980,
   "byteLength": 2304,
   "target": 34962,
   "byteStride": 8
  },
  {
   "buffer": 0,
   "byteOffset": 193284,
   "byteLength": 768,
   "target": 34963
  },
  {
   "buffer": 0,
   "byteOffset": 194052,
   "byteLength": 25272,
   "target": 34962,
   "byteStride": 12
  },
  {
   "buffer": 0,
   "byteOffset": 219324,
   "byteLength": 25272,
   "target": 34962,
   "byteStride": 12
  },
  {
   "buffer": 0,
   "byteOffset": 244596,
   "byteLength": 16848,
   "target": 34962,
   "byteStride": 8
  },
  {
   "buffer": 0,
   "byteOffset": 261444,
   "byteLength": 5820,
   "target": 34963
  }
 ],
 "buffers": [
  {
   "byteLength": 267264,
   "uri": "data:application/octet-stream;base64,"
  }
 ],
 "images": [
  {
   "bufferView": 0,
   "mimeType": "image/png"
  }
 ],
 "materials": [
  {
   "pbrMetallicRoughness": {
    "baseColorFactor": [
     0.588235,
     0.588235,
     0.588235,
     1
    ],
    "baseColorTexture": {
     "index": 0,
     "texCoord": 0
    },
    "roughnessFactor": 0.4082,
    "metallicFactor": 0
   }
  }
 ],
 "meshes": [
  {
   "primitives": [
    {
     "indices": 3,
     "material": 0,
     "mode": 4,
     "attributes": {
      "POSITION": 0,
      "NORMAL": 1,
      "TEXCOORD_0": 2
     }
    }
   ]
  },
  {
   "primitives": [
    {
     "indices": 7,
     "material": 0,
     "mode": 4,
     "attributes": {
      "POSITION": 4,
      "NORMAL": 5,
      "TEXCOORD_0": 6
     }
    }
   ]
  },
  {
   "primitives": [
    {
     "indices": 11,
     "material": 0,
     "mode": 4,
     "attributes": {
      "POSITION": 8,
      "NORMAL": 9,
      "TEXCOORD_0": 10
     }
    }
   ]
  },
  {
   "primitives": [
    {
     "indices": 15,
     "material": 0,
     "mode": 4,
     "attributes": {
      "POSITION": 12,
      "NORMAL": 13,
      "TEXCOORD_0": 14
     }
    }
   ]
  },
  {
   "primitives": [
    {
     "indices": 19,
     "material": 0,
     "mode": 4,
     "attributes": {
      "POSITION": 16,
      "NORMAL": 17,
      "TEXCOORD_0": 18
     }
    }
   ]
  }
 ],
 "nodes": [
  {
   "name": "sampleCar_root",
   "scale": [
    0.009999999776482582,
    0.009999999776482582,
    0.009999999776482582
   ],
   "children": [
    3,
    4,
    5,
    6,
    7
   ]
  },
  {
   "name": "LightPreset",
   "translation": [
    0,
    7.26029109954834,
    0
   ]
  },
  {
   "name": "CameraPreset",
   "translation": [
    0,
    7.26029109954834,
    0
   ]
  },
  {
   "name": "Wheel_02",
   "mesh": 0
  },
  {
   "name": "Wheel_01",
   "mesh": 1
  },
  {
   "name": "Wheel_00",
   "mesh": 2
  },
  {
   "name": "Wheel_03",
   "mesh": 3
  },
  {
   "name": "Body",
   "mesh": 4
  }
 ],
 "samplers": [
  {
   "magFilter": 9729,
   "minFilter": 9987,
   "wrapS": 10497,
   "wrapT": 10497
  }
 ],
 "scene": 0,
 "scenes": [
  {
   "nodes": [
    0,
    1,
    2
   ]
  }
 ],
 "textures": [
  {
   "sampler": 0,
   "source": 0
  }
 ]
}