{
 "accessors": [
  {
   "componentType": 5126,
   "type": "VEC3",
   "count": 288,
   "max": [
    -622.7669677734375,
    604.318603515625,
    1633.2060546875
   ],
   "min": [
    -828.9739990234375,
    -9.175385475158691,
    1019.7119750976562
   ],
   "bufferView": 2
  },
  {
   "componentType": 5126,
   "type": "VEC3",
   "count": 288,
   "bufferView": 3
  },
  {
   "componentType": 5126,
   "type": "VEC2",
   "count": 288,
   "bufferView": 4
  },
  {
   "componentType": 5123,
   "type": "SCALAR",
   "count": 384,
   "bufferView": 5
  },
  {
   "componentType": 5126,
   "type": "VEC3",
   "count": 288,
   "max": [
    828.9739990234375,
    604.318603515625,
    1633.2060546875
   ],
   "min": [
    622.7669677734375,
    -9.175385475158691,
    1019.7119750976562
   ],
   "bufferView": 6
  },
  {
   "componentType": 5126,
   "type": "VEC3",
   "count": 288,
   "bufferView": 7
  },
  {
   "componentType": 5126,
   "type": "VEC2",
   "count": 288,
   "bufferView": 8
  },
  {
   "componentType": 5123,
   "type": "SCALAR",
   "count": 384,
   "bufferView": 9
  },
  {
   "componentType": 5126,
   "type": "VEC3",
   "count": 288,
   "max": [
    -622.7669677734375,
    604.318603515625,
    -990.4550170898438
   ],
   "min": [
    -828.9739990234375,
    -9.175385475158691,
    -1603.948974609375
   ],
   "bufferView": 10
  },
  {
   "componentType": 5126,
   "type": "VEC3",
   "count": 288,
   "bufferView": 11
  },
  {
   "componentType": 5126,
   "type": "VEC2",
   "count": 288,
   "bufferView": 12
  },
  {
   "componentType": 5123,
   "type": "SCALAR",
   "count": 384,
   "bufferView": 13
  },
  {
   "componentType": 5126,
   "type": "VEC3",
   "count": 288,
   "max": [
    828.9739990234375,
    604.318603515625,
    -990.4550170898438
   ],
   "min": [
    622.7669677734375,
    -9.175385475158691,
    -1603.948974609375
   ],
   "bufferView": 14
  },
  {
   "componentType": 5126,
   "type": "VEC3",
   "count": 288,
   "bufferView": 15
  },
  {
   "componentType": 5126,
   "type": "VEC2",
   "count": 288,
   "bufferView": 16
  },
  {
   "componentType": 5123,
   "type": "SCALAR",
   "count": 384,
   "bufferView": 17
  },
  {
   "componentType": 5126,
   "type": "VEC3",
   "count": 2106,
   "max": [
    977.208984375,
    1461.233642578125,
    2231.633056640625
   ],
   "min": [
    -977.208984375,
    112.30450439453125,
    -2231.633056640625
   ],
   "bufferView": 18
  },
  {
   "componentType": 5126,
   "type": "VEC3",
   "count": 2106,
   "bufferView": 19
  },
  {
   "componentType": 5126,
   "type": "VEC2",
   "count": 2106,
   "bufferView": 20
  },
  {
   "componentType": 5123,
   "type": "SCALAR",
   "count": 2910,
   "bufferView": 21
  }
 ],
 "asset": {
  "version": "2.0",
  "generator": "clara.io"
 },
 "bufferViews": [
  {
   "buffer": 0,
   "byteOffset": 0,
   "byteLength": 154115
  },
  {
   "buffer": 0,
   "byteOffset": 154116,
   "byteLength": 68622
  },
  {
   "buffer": 0,
   "byteOffset": 222740,
   "byteLength": 3456,
   "target": 34962,
   "byteStride": 12
  },
  {
   "buffer": 0,
   "byteOffset": 226196,
   "byteLength": 3456,
   "target": 34962,
   "byteStride": 12
  },
  {
   "buffer": 0,
   "byteOffset": 229652,
   "byteLength": 2304,
   "target": 34962,
   "byteStride": 8
  },
  {
   "buffer": 0,
   "byteOffset": 231956,
   "byteLength": 768,
   "target": 34963
  },
  {
   "buffer": 0,
   "byteOffset": 232724,
   "byteLength": 3456,
   "target": 34962,
   "byteStride": 12
  },
  {
   "buffer": 0,
   "byteOffset": 236180,
   "byteLength": 3456,
   "target": 34962,
   "byteStride": 12
  },
  {
   "buffer": 0,
   "byteOffset": 239636,
   "byteLength": 2304,
   "target": 34962,
   "byteStride": 8
  },
  {
   "buffer": 0,
   "byteOffset": 241940,
   "byteLength": 768,
   "target": 34963
  },
  {
   "buffer": 0,
   "byteOffset": 242708,
   "byteLength": 3456,
   "target": 34962,
   "byteStride": 12
  },
  {
   "buffer": 0,
   "byteOffset": 246164,
   "byteLength": 3456,
   "target": 34962,
   "byteStride": 12
  },
  {
   "buffer": 0,
   "byteOffset": 249620,
   "byteLength": 2304,
   "target": 34962,
   "byteStride": 8
  },
  {
   "buffer": 0,
   "byteOffset": 251924,
   "byteLength": 768,
   "target": 34963
  },
  {
   "buffer": 0,
   "byteOffset": 252692,
   "byteLength": 3456,
   "target": 34962,
   "byteStride": 12
  },
  {
   "buffer": 0,
   "byteOffset": 256148,
   "byteLength": 3456,
   "target": 34962,
   "byteStride": 12
  },
  {
   "buffer": 0,
   "byteOffset": 259604,
   "byteLength": 2304,
   "target": 34962,
   "byteStride": 8
  },
  {
   "buffer": 0,
   "byteOffset": 261908,
   "byteLength": 768,
   "target": 34963
  },
  {
   "buffer": 0,
   "byteOffset": 262676,
   "byteLength": 25272,
   "target": 34962,
   "byteStride": 12
  },
  {
   "buffer": 0,
   "byteOffset": 287948,
   "byteLength": 25272,
   "target": 34962,
   "byteStride": 12
  },
  {
   "buffer": 0,
   "byteOffset": 313220,
   "byteLength": 16848,
   "target": 34962,
   "byteStride": 8
  },
  {
   "buffer": 0,
   "byteOffset": 330068,
   "byteLength": 5820,
   "target": 34963
  }
 ],
 "buffers": [
  {
   "byteLength": 335888,
   "uri": "data:application/octet-stream;base64,"
  }
 ],
 "images": [
  {
   "bufferView": 0,
   "mimeType": "image/png"
  },
  {
   "bufferView": 1,
   "mimeType": "image/jpeg"
  }
 ],
 "materials": [
  {
   "pbrMetallicRoughness": {
    "baseColorFactor": [
     0.8,
     0.8,
     0.8,
     1
    ],
    "baseColorTexture": {
     "index": 0,
     "texCoord": 0
    },
    "roughnessFactor": 0.3015,
    "metallicFactor": 0,
    "metallicRoughnessTexture": {
     "index": 1
    }
   }
  },
  {
   "pbrMetallicRoughness": {
    "baseColorFactor": [
     0.8,
     0.8,
     0.8,
     1
    ],
    "baseColorTexture": {
     "index": 0,
     "texCoord": 0
    },
    "roughnessFactor": 0.3015,
    "metallicFactor": 0,
    "metallicRoughnessTexture": {
     "index": 1
    }
   }
  },
  {
   "pbrMetallicRoughness": {
    "baseColorFactor": [
     0.8,
     0.8,
     0.8,
     1
    ],
    "baseColorTexture": {
     "index": 0,
     "texCoord": 0
    },
    "roughnessFactor": 0.3015,
    "metallicFactor": 0,
    "metallicRoughnessTexture": {
     "index": 1
    }
   }
  },
  {
   "pbrMetallicRoughness": {
    "baseColorFactor": [
     0.8,
     0.8,
     0.8,
     1
    ],
    "baseColorTexture": {
     "index": 0,
     "texCoord": 0
    },
    "roughnessFactor": 0.3015,
    "metallicFactor": 0,
    "metallicRoughnessTexture": {
     "index": 1
    }
   }
  },
  {
   "pbrMetallicRoughness": {
    "baseColorFactor": [
     0.8,
     0.8,
     0.8,
     1
    ],
    "baseColorTexture": {
     "index": 0,
     "texCoord": 0
    },
    "roughnessFactor": 0.3015,
    "metallicFactor": 0,
    "metallicRoughnessTexture": {
     "index": 1
    }
   }
  }
 ],
 "meshes": [
  {
   "primitives": [
    {
     "indices": 3,
     "material": 1,
     "mode": 4,
     "attributes": {
      "POSITION": 0,
      "NORMAL": 1,
      "TEXCOORD_0": 2
     }
    }
   ]
  },
  {
   "primitives": [
    {
     "indices": 7,
     "material": 2,
     "mode": 4,
     "attributes": {
      "POSITION": 4,
      "NORMAL": 5,
      "TEXCOORD_0": 6
     }
    }
   ]
  },
  {
   "primitives": [
    {
     "indices": 11,
     "material": 4,
     "mode": 4,
     "attributes": {
      "POSITION": 8,
      "NORMAL": 9,
      "TEXCOORD_0": 10
     }
    }
   ]
  },
  {
   "primitives": [
    {
     "indices": 15,
     "material": 3,
     "mode": 4,
     "attributes": {
      "POSITION": 12,
      "NORMAL": 13,
      "TEXCOORD_0": 14
     }
    }
   ]
  },
  {
   "primitives": [
    {
     "indices": 19,
     "material": 0,
     "mode": 4,
     "attributes": {
      "POSITION": 16,
      "NORMAL": 17,
      "TEXCOORD_0": 18
     }
    }
   ]
  }
 ],
 "nodes": [
  {
   "name": "sampleCar_root",
   "scale": [
    0.009999999776482582,
    0.009999999776482582,
    0.009999999776482582
   ],
   "children": [
    1,
    2,
    3,
    4,
    5
   ]
  },
  {
   "name": "Wheel_00",
   "mesh": 0
  },
  {
   "name": "Wheel_01",
   "mesh": 1
  },
  {
   "name": "Wheel_03",
   "mesh": 2
  },
  {
   "name": "Wheel_02",
   "mesh": 3
  },
  {
   "name": "Body",
   "mesh": 4
  }
 ],
 "samplers": [
  {
   "magFilter": 9729,
   "minFilter": 9987,
   "wrapS": 10497,
   "wrapT": 10497
  }
 ],
 "scene": 0,
 "scenes": [
  {
   "nodes": [
    0
   ]
  }
 ],
 "textures": [
  {
   "sampler": 0,
   "source": 0
  },
  {
   "sampler": 0,
   "source": 1
  }
 ]
}