{
  "accessors": [
    {
      "bufferView": 2,
      "componentType": 5126,
      "count": 1226,
      "max": [
        977.208984375,
        2231.633056640625,
        1461.233642578125
      ],
      "min": [
        -977.208984375,
        -2231.633056640625,
        -9.1753854751586914
      ],
      "type": "VEC3"
    },
    {
      "bufferView": 2,
      "byteOffset": 14712,
      "componentType": 5126,
      "count": 1226,
      "max": [
        1,
        0.99981135129928589,
        1
      ],
      "min": [
        -1,
        -0.999991774559021,
        -0.99999576807022095
      ],
      "type": "VEC3"
    },
    {
      "bufferView": 3,
      "componentType": 5126,
      "count": 1226,
      "max": [
        0.99997127056121826,
        0.99999898672103882,
        1,
        1
      ],
      "min": [
        -0.99954319000244141,
        -0.99999576807022095,
        -0.99996834993362427,
        -1
      ],
      "type": "VEC4"
    },
    {
      "bufferView": 1,
      "componentType": 5126,
      "count": 1226,
      "max": [
        0.99765801429748535,
        0.98566997051239014
      ],
      "min": [
        0.0021780000533908606,
        0.014756999909877777
      ],
      "type": "VEC2"
    },
    {
      "bufferView": 0,
      "componentType": 5125,
      "count": 4446,
      "max": [
        1225
      ],
      "min": [
        0
      ],
      "type": "SCALAR"
    }
  ],
  "asset": {
    "extras": {
      "author": "eddie.blandon (https://sketchfab.com/eddie.blandon)",
      "license": "CC-BY-4.0 (http://creativecommons.org/licenses/by/4.0/)",
      "source": "https://sketchfab.com/models/c97b378c0da2447e8c49cc6b68652a31",
      "title": "Sample Car"
    },
    "generator": "Sketchfab-3.36.2",
    "version": "2.0"
  },
  "bufferViews": [
    {
      "buffer": 0,
      "byteLength": 17784,
      "byteOffset": 0,
      "name": "floatBufferViews",
      "target": 34963
    },
    {
      "buffer": 0,
      "byteLength": 9808,
      "byteOffset": 17784,
      "byteStride": 8,
      "name": "floatBufferViews",
      "target": 34962
    },
    {
      "buffer": 0,
      "byteLength": 29424,
      "byteOffset": 27592,
      "byteStride": 12,
      "name": "floatBufferViews",
      "target": 34962
    },
    {
      "buffer": 0,
      "byteLength": 19616,
      "byteOffset": 57016,
      "byteStride": 16,
      "name": "floatBufferViews",
      "target": 34962
    }
  ],
  "buffers": [
    {
      "byteLength": 76632,
      "uri": "scene.bin"
    }
  ],
  "images": [
    {
      "uri": "textures/Toyota_Prius_2015_baseColor.png"
    },
    {
      "uri": "textures/Toyota_Prius_2015_emissive.png"
    }
  ],
  "materials": [
    {
      "doubleSided": true,
      "emissiveFactor": [
        0,
        0,
        0
      ],
      "emissiveTexture": {
        "index": 1,
        "texCoord": 0
      },
      "name": "Toyota_Prius_2015",
      "pbrMetallicRoughness": {
        "baseColorFactor": [
          1,
          1,
          1,
          1
        ],
        "baseColorTexture": {
          "index": 0,
          "texCoord": 0
        },
        "metallicFactor": 0,
        "roughnessFactor": 1
      }
    }
  ],
  "meshes": [
    {
      "primitives": [
        {
          "attributes": {
            "NORMAL": 1,
            "POSITION": 0,
            "TANGENT": 2,
            "TEXCOORD_0": 3
          },
          "indices": 4,
          "material": 0,
          "mode": 4
        }
      ]
    }
  ],
  "nodes": [
    {
      "children": [
        1
      ],
      "name": "RootNode (gltf orientation matrix)",
      "rotation": [
        -0.70710678118654746,
        -0,
        -0,
        0.70710678118654757
      ]
    },
    {
      "children": [
        2
      ],
      "name": "RootNode (model correction matrix)"
    },
    {
      "children": [
        3
      ],
      "name": "sampleCar.obj.cleaner.materialmerger.gles"
    },
    {
      "mesh": 0,
      "name": ""
    }
  ],
  "samplers": [
    {
      "magFilter": 9729,
      "minFilter": 9987,
      "wrapS": 10497,
      "wrapT": 10497
    }
  ],
  "scene": 0,
  "scenes": [
    {
      "name": "OSG_Scene",
      "nodes": [
        0
      ]
    }
  ],
  "textures": [
    {
      "sampler": 0,
      "source": 0
    },
    {
      "sampler": 0,
      "source": 1
    }
  ]
}

